<svg xmlns="http://www.w3.org/2000/svg" width="152" height="31" fill="none"><path stroke="#000" stroke-width="2" d="M35 1h116v29H35z"/><path fill="#000" d="M34 0h2v31h-2zM66.75 21.25V9h3.5v10.5h7v1.75h-10.5Zm14 0V19.5h3.5v-8.75h-3.5V9h10.5v1.75h-3.5v8.75h3.5v1.75h-10.5Zm12.25 0V9h3.5v5.25h1.75V12.5H100v-1.75h1.75V9h3.5v1.75h-1.75v1.75h-1.75v1.75H100V16h1.75v1.75h1.75v1.75h1.75v1.75H100V19.5h-1.75v-1.75H96.5v3.5H93Zm14 0V9h12.25v1.75h-8.75v3.5h7V16h-7v3.5h8.75v1.75H107ZM6 4H3v3h3V4ZM9 4H6v3h3V4ZM3 7H0v3h3V7ZM3 10H0v3h3v-3ZM3 13H0v3h3v-3ZM12 4H9v3h3V4ZM6 16H3v3h3v-3ZM9 19H6v3h3v-3ZM12 22H9v3h3v-3ZM21 4h3v3h-3V4ZM18 4h3v3h-3V4ZM24 7h3v3h-3V7ZM24 10h3v3h-3v-3ZM24 13h3v3h-3v-3ZM15 4h3v3h-3V4ZM21 16h3v3h-3v-3ZM18 19h3v3h-3v-3ZM15 22h3v3h-3v-3ZM15 7h-3v3h3V7ZM15 25h-3v3h3v-3Z"/></svg>